<svg xmlns="http://www.w3.org/2000/svg" xmlns:xlink="http://www.w3.org/1999/xlink" viewBox="0,0,256,256" width="250px" height="250px" fill-rule="nonzero"><g fill="#eb4135" fill-rule="nonzero" stroke="none" stroke-width="1" stroke-linecap="butt" stroke-linejoin="miter" stroke-miterlimit="10" stroke-dasharray="" stroke-dashoffset="0" font-family="none" font-weight="none" font-size="none" text-anchor="none" style="mix-blend-mode: normal"><g transform="scale(5.12,5.12)"><path d="M25,2c-12.682,0 -23,10.317 -23,23c0,12.683 10.318,23 23,23c12.682,0 23,-10.317 23,-23c0,-12.683 -10.318,-23 -23,-23zM14.80078,11h2.20508c-0.00361,0.03308 -0.00556,0.06633 -0.00586,0.09961v7.90039c-0.0051,0.36064 0.18438,0.69608 0.49587,0.87789c0.3115,0.18181 0.69676,0.18181 1.00825,0c0.3115,-0.18181 0.50097,-0.51725 0.49587,-0.87789v-7.90039c0.00035,-0.03325 -0.00095,-0.06649 -0.00391,-0.09961h0.80469h1.20508c-0.00361,0.03308 -0.00556,0.06633 -0.00586,0.09961v7.90039c-0.0051,0.36064 0.18438,0.69608 0.49587,0.87789c0.3115,0.18181 0.69676,0.18181 1.00825,0c0.3115,-0.18181 0.50097,-0.51725 0.49587,-0.87789v-7.90039c0.00035,-0.03325 -0.00095,-0.06649 -0.00391,-0.09961h2.10352c0,0 0.90039,4.7 0.90039,8c0,5.7 -4.30078,4.8 -4.30078,7c0,2.2 1.30078,4.2 1.30078,9c0,4.8 -1.7,6 -3,6c-1.3,0 -3,-0.9 -3,-6c0,-5.1 1.30078,-6.8 1.30078,-9c0,-2.2 -4.30078,-1.4 -4.30078,-7c0,-5 0.80078,-8 0.80078,-8zM30,11c5.1,2.5 6,6.99961 6,9.59961c0,4.4 -3,6.50039 -3,9.40039c0,1.7 1,3 1,6c0,3 -0.5,5 -2,5c-1.5,0 -2,-1.2 -2,-6z"></path></g></g></svg>