<svg xmlns="http://www.w3.org/2000/svg" xmlns:xlink="http://www.w3.org/1999/xlink" viewBox="0,0,256,256" width="250px" height="250px" fill-rule="nonzero"><g fill="#eb4135" fill-rule="nonzero" stroke="none" stroke-width="1" stroke-linecap="butt" stroke-linejoin="miter" stroke-miterlimit="10" stroke-dasharray="" stroke-dashoffset="0" font-family="none" font-weight="none" font-size="none" text-anchor="none" style="mix-blend-mode: normal"><g transform="scale(5.12,5.12)"><path d="M20.78711,4c-3.772,0 -6.87158,2.8435 -7.14258,6.4375c-2.292,1.567 -3.64453,4.0755 -3.64453,6.8125c0,4.604 3.86333,8.34961 8.61133,8.34961c1.327,0 2.63331,-0.30005 3.82031,-0.87305c1.479,1.454 3.47947,2.27344 5.60547,2.27344c3.037,0 5.74636,-1.65563 7.06836,-4.26562c3.352,-0.43 5.89453,-3.19116 5.89453,-6.53516c0,-2.532 -1.45867,-4.78939 -3.76367,-5.90039c-0.652,-3.23 -3.57044,-5.59961 -7.02344,-5.59961c-1.575,0 -3.07069,0.49144 -4.30469,1.39844c-1.339,-1.328 -3.18609,-2.09766 -5.12109,-2.09766zM19,9l4,2.40039c-0.383,0.816 -1.43939,1.59961 -2.40039,1.59961c-1.326,0 -2.40039,-1.07439 -2.40039,-2.40039c0,-0.586 0.45278,-1.18261 0.80078,-1.59961zM31,9c0.348,0.417 0.80078,1.01361 0.80078,1.59961c0,1.326 -1.07439,2.40039 -2.40039,2.40039c-0.961,0 -2.01739,-0.78361 -2.40039,-1.59961zM18,15h2l1.5,3l1.5,-3h4l1.5,3l1.5,-3h2c0,3.314 -3,6 -7,6c-4,0 -7,-2.686 -7,-6zM3,21c-1.654,0 -3,1.346 -3,3v26h50v-8h-44v-18c0,-1.654 -1.346,-3 -3,-3zM12,30c-2.76142,0 -5,2.23858 -5,5c0,2.76142 2.23858,5 5,5c2.76142,0 5,-2.23858 5,-5c0,-2.76142 -2.23858,-5 -5,-5zM19,30c-0.552,0 -1,0.447 -1,1v9h32v-5c0,-2.757 -2.243,-5 -5,-5z"></path></g></g></svg>